<?xml version="1.0" encoding="UTF-8"?>
<svg id="Capa_2" xmlns="http://www.w3.org/2000/svg" version="1.1" viewBox="0 0 600 700">
  <!-- Generator: Adobe Illustrator 30.1.0, SVG Export Plug-In . SVG Version: 2.1.1 Build 136)  -->
  <defs>
    <style>
      .st0 {
        fill: #4577a8;
      }

      .st1 {
        fill: #e69718;
      }

      .st2 {
        fill: #e3e0d7;
      }

      .st3 {
        fill: #c9a646;
      }

      .st4 {
        fill: #dbb552;
      }

      .st5 {
        fill: #edc266;
      }
    </style>
  </defs>
  <path class="st3" d="M297,382.3c136.6-45.9,133.6-134.4,133.6-134.7V99.5s-133.6-34.7-133.6-34.7l-133.7,34.7v148.1c0,.3-2.9,88.8,133.7,134.7Z"/>
  <path class="st0" d="M284.7,316.5c10.1,4.6,19.5,6.4,28.1,6.4,12.9,0,23.8-4,31.9-8.4-15.1-2.9-37.1-9-63-21.9-11.3-5.6-23.6-7.7-35.6-7.7-24.3,0-47.2,8.6-57.5,13.2,4.2,6.5,9,12.7,14.5,18.7,5.4-3.7,18.2-10.6,37.8-10.6s26.7,2.7,43.8,10.4Z"/>
  <path class="st0" d="M297,240.1c-65.2-28.1-114.3-7-125.5-1.3v8.9c0,.4,0,5.4,1.6,13.4,13.7-6.6,61.4-24.8,123.9,2.1,60.5,26.1,86.4,22.7,119.3,13,4.3-11.3,5.5-20.2,5.9-24.8-35.9,11-61.2,16.5-125.3-11.2Z"/>
  <path class="st2" d="M297,273.2c-59.3-25.6-105.3-10.4-121.5-3.2,1.9,6.1,4.7,13.2,8.9,20.8,15.6-7,62.4-24.8,100.9-5.7,47,23.3,80.8,23.7,80.8,23.7,0,0-35.8,37.5-84.8,15.2-39.1-17.8-63.8-6.6-72.3-1.3,21.4,20.9,51.2,38.2,88,50.9,52.3-18.1,90.5-45.5,110.6-79.4,1.3-2.2,2.5-4.4,3.6-6.5-30.6,8.5-56.9,10.3-114.2-14.4Z"/>
  <path class="st2" d="M422.4,241.6V105.9s-125.4-32.6-125.4-32.6l-125.5,32.6v123.2c8-4.1,35.5-16,74.3-12.2.6-29.4,24.6-53.2,54.2-53.2s54.2,24.3,54.2,54.2-3.1,20.8-8.5,29.2c31.7,7.1,51.6,2.1,76.8-5.5Z"/>
  <path class="st1" d="M339.6,245.6c5.5-7.8,8.7-17.4,8.7-27.7,0-26.7-21.6-48.3-48.3-48.3s-48.1,21.4-48.3,48c13.9,1.9,29.1,5.8,45.3,12.8,16.5,7.1,30.4,12,42.5,15.2Z"/>
  <path class="st4" d="M211.4,181.3c-10.9-3.5-27.9,2.7-27.9,2.7,0,0,17,4.1,24.5,8.4,7.1,4.1,18.1,10.6,32,12.2,1.1-4.9,2.8-9.6,4.9-13.9-18.8-1.3-23-6-33.4-9.3Z"/>
  <path class="st4" d="M261.6,169.8c-16.6-8.2-18.7-14.1-27-21-8.8-7.3-26.9-8.1-26.9-8.1,0,0,14.2,10.2,19.5,17,4.9,6.3,12.3,16.1,24,22.8,3-4,6.6-7.5,10.5-10.7Z"/>
  <path class="st4" d="M266.9,127.8c-4.4-10.5-20.1-19.6-20.1-19.6,0,0,7.9,15.6,9.5,24.1,1.5,8.2,3.7,21.2,11.9,32.9,4.1-2.5,8.6-4.5,13.3-6-11.2-15.1-10.3-21.4-14.5-31.4Z"/>
  <path class="st4" d="M304.8,156.5c-3-16.4.1-21.7.5-32.1.4-11.4-10.1-26.2-10.1-26.2,0,0,.6,17.5-1.5,25.8-2,7.7-5.2,19.7-3.3,33,3.1-.5,6.3-.7,9.6-.7s3.2,0,4.8.2Z"/>
  <path class="st4" d="M343.5,135.3c5.8-9.8,3.7-27.8,3.7-27.8,0,0-7.8,15.7-13.7,22-5.6,6-14.5,15.4-19.1,28.6,4.7,1.1,9.2,2.8,13.4,4.9,5.1-15.6,10.4-18.8,15.7-27.7Z"/>
  <path class="st4" d="M347.9,179.1c10.2-12.5,16.2-13.7,24.2-20.1,8.9-7.2,13.3-24.7,13.3-24.7,0,0-12.9,11.9-20.6,15.7-7.1,3.5-18.3,8.9-27.2,19.1,3.8,2.9,7.2,6.3,10.3,10Z"/>
  <path class="st4" d="M390.5,192.9c11.2-2.4,22.9-16.3,22.9-16.3,0,0-16.8,4.9-25.4,4.9-8.3,0-21.6-.2-34.5,5.8,2.4,4.1,4.3,8.5,5.6,13.1,15.3-7.1,21.3-5.4,31.4-7.6Z"/>
  <path class="st4" d="M393.8,223.4c-7.3-3.2-18.7-8.4-32.3-8.6,0,1,0,2.1,0,3.1,0,3.8-.4,7.5-1,11.1,16.2-.2,21,3.7,31,5.7,11.2,2.3,27.5-5.7,27.5-5.7,0,0-17.4-2.2-25.2-5.7Z"/>
  <g>
    <path class="st5" d="M302.2,197l-2.7-13.6-2.8,13.8c1.1-.2,2.2-.3,3.3-.3s1.5,0,2.2.1Z"/>
    <path class="st5" d="M315.2,203.4l5.4-13.2-9.7,9.8c1.6,1,3.1,2.1,4.3,3.5Z"/>
    <path class="st5" d="M332.9,207.9l-13.8,1.2c.8,1.6,1.3,3.4,1.6,5.2l12.2-6.4Z"/>
    <path class="st5" d="M266.7,208.7l12.7,5.2c.4-1.9,1-3.6,1.8-5.3l-14.5.2Z"/>
    <path class="st5" d="M320.7,221.3c-.3,1.9-.8,3.7-1.6,5.3l12.5,4-10.9-9.3Z"/>
    <path class="st5" d="M280,189.6l5.4,13.2c1.3-1.3,2.8-2.4,4.5-3.3l-9.8-9.9Z"/>
  </g>
  <path class="st3" d="M105.9,421.3c0-12.3,0-14.5-.2-17.1-.2-2.7-.8-4-3.5-4.6-.6-.2-2-.2-3.1-.2s-1.4-.2-1.4-.7.6-.7,1.8-.7c4.3,0,9.4.2,11.6.2,3.3,0,8-.2,11.7-.2,10.1,0,13.3,3.1,15.2,4.8,1.8,1.8,3.9,5,3.9,10.6,0,9.9-8.4,18.3-19.8,18.3s-1.3,0-1.7,0c-.4,0-1-.2-1-.7s.6-.9,2.3-.9c4.5,0,10.8-5.2,10.8-13.4s0-8-4.5-12c-2.9-2.7-6.5-3.1-8.3-3.1s-2.4,0-3.1.3c-.4.2-.6.6-.6,1.5v32.3c0,7.4,0,13.8.4,17.3.2,2.3.7,4,3.1,4.4,1.1.2,2.9.3,4.1.3s1.3.2,1.3.6-.6.8-1.5.8c-5.3,0-10.4-.2-12.5-.2s-6.9.2-10.2.2-1.6-.2-1.6-.8.3-.6,1.3-.6,2.2-.2,2.9-.3c1.6-.3,2-2.1,2.3-4.4.4-3.4.4-9.8.4-17.2v-14.2Z"/>
  <path class="st3" d="M158.7,421.3c0-12.3,0-14.5-.2-17.1-.2-2.7-1-4.1-2.7-4.5-.9-.2-1.9-.3-2.9-.3s-1.3-.2-1.3-.8.6-.6,1.9-.6c3.1,0,8.1.2,10.5.2s6.8-.2,9.8-.2,1.7.2,1.7.6-.5.8-1.3.8-1.5,0-2.4.2c-2.2.4-2.8,1.8-3,4.6-.2,2.6-.2,4.8-.2,17.1v14.2c0,7.8,0,14.2.3,17.7.2,2.2.8,3.6,3.2,4,1.1.2,2.9.3,4.1.3s1.3.2,1.3.6-.6.8-1.5.8c-5.3,0-10.4-.2-12.6-.2s-6.9.2-10.2.2-1.6-.2-1.6-.8.3-.6,1.3-.6,2.2-.2,2.9-.3c1.6-.3,2.1-1.7,2.3-4,.4-3.4.4-9.8.4-17.6v-14.2Z"/>
  <path class="st3" d="M187.6,457.9c-1.3-.6-1.5-1-1.5-2.7,0-4.4.3-9.3.4-10.6,0-1.2.3-2.1,1-2.1s.8.7.8,1.4c0,1,.3,2.7.7,4.1,1.8,6,6.5,8.1,11.5,8.1,7.3,0,10.8-4.9,10.8-9.2s-1.2-7.7-7.9-12.9l-3.7-2.9c-8.9-6.9-11.9-12.6-11.9-19.1s7.4-15.2,18.6-15.2,5.5.3,7.4.6c1.4.2,2.4.5,3.3.7.7.2,1.1.4,1.1,1,0,1-.3,3.4-.3,9.7s-.2,2.4-.9,2.4-.8-.5-.8-1.5-.4-3.2-2.1-5.3c-1.2-1.5-3.5-4-8.8-4s-9.6,3.5-9.6,8.3,1.9,6.5,8.5,11.6l2.3,1.7c9.8,7.3,13.2,12.9,13.2,20.6s-1.8,10.2-7.6,14c-4,2.6-8.5,3.3-12.8,3.3s-8.3-.6-11.8-2.1Z"/>
  <path class="st3" d="M239.3,451.2c-7.9-6.9-10-16-10-23.8s1.7-15,9.4-22.1c5.8-5.3,13.5-8.5,25.5-8.5s8,.3,11.7.8c3.1.4,5.9,1.1,8.3,1.4.9,0,1,.5,1,1s-.2,1.6-.4,4.4c-.2,2.7,0,7.1-.2,8.7,0,1.2-.2,1.9-1,1.9s-.8-.7-.8-1.9c0-2.5-1.1-5.3-3.1-7.4-2.7-2.8-8.9-5-16.4-5s-11.6,1.8-15.2,5c-5.9,5.4-7.4,13.1-7.4,20.9,0,19.2,14.6,28.7,25.4,28.7s11.5-.8,14.8-4.5c1.4-1.5,2.4-3.9,2.7-5.3.2-1.3.4-1.6,1-1.6s.7.6.7,1.2c0,1-1,8-1.8,10.7-.4,1.4-.7,1.8-2.1,2.3-3.2,1.3-9.4,1.9-14.5,1.9-11,0-20.3-2.4-27.7-8.8Z"/>
  <path class="st3" d="M302.5,421.3c0-12.3,0-14.5-.2-17.1-.2-2.7-1-4.1-2.7-4.5-.9-.2-1.9-.3-2.9-.3s-1.3-.2-1.3-.8.6-.6,1.9-.6c3.1,0,8.1.2,10.5.2s6.8-.2,9.8-.2,1.7.2,1.7.6-.5.8-1.3.8-1.5,0-2.4.2c-2.2.4-2.8,1.8-3,4.6-.2,2.6-.2,4.8-.2,17.1v14.2c0,7.8,0,14.2.3,17.7.2,2.2.8,3.6,3.2,4,1.1.2,2.9.3,4.1.3s1.3.2,1.3.6-.6.8-1.5.8c-5.3,0-10.4-.2-12.6-.2s-6.9.2-10.2.2-1.6-.2-1.6-.8.3-.6,1.3-.6,2.2-.2,2.9-.3c1.6-.3,2.1-1.7,2.3-4,.4-3.4.4-9.8.4-17.6v-14.2Z"/>
  <path class="st3" d="M337.6,399.3c0-1.6.2-2.7,1-2.7s1.6,1,3,2.5c1,1,13.2,14.2,25,25.9,5.5,5.5,16.8,17.5,18.1,18.8l-.8-36.6c0-4.9-.8-6.5-2.7-7.3-1.2-.5-3.1-.5-4.3-.5s-1.3-.2-1.3-.7.9-.7,2.1-.7c4.2,0,8.1.2,9.8.2s4-.2,7.9-.2,1.9,0,1.9.7-.5.7-1.5.7-1.5,0-2.4.2c-2.3.6-2.9,2.3-3,6.9-.3,17-.6,33.9-.9,50.9,0,1.8-.3,2.5-1,2.5s-1.9-.9-2.7-1.8c-5.1-4.8-15.4-15.4-23.8-23.7-8.8-8.7-18-19-19.4-20.6l.9,34.1c.2,6.3,1.2,8.4,2.8,8.9,1.4.5,2.9.6,4.2.6s1.4.2,1.4.6-.7.8-1.9.8c-5.2,0-8.5-.2-10-.2s-4.5.2-8.7.2-1.8,0-1.8-.8.5-.6,1.3-.6,2.5,0,3.6-.4c2.1-.6,2.4-3,2.5-10,.2-17.1.6-37,.7-47.7Z"/>
  <path class="st3" d="M418.5,437.8c-.4,0-.6.2-.7.6l-4.4,11.5c-.8,2-1.2,4-1.2,4.9,0,1.5.7,2.5,3.2,2.5h1.2c1,0,1.2.2,1.2.6s-.5.8-1.4.8c-2.6,0-6-.2-8.5-.2s-5.3.2-9.5.2-1.5-.2-1.5-.8.5-.6,1.1-.6,1.7,0,2.3-.2c3.7-.5,5.2-3.2,6.9-7.3l20.2-50.6c1-2.3,1.5-3.2,2.3-3.2s1.2.7,2,2.6c1.9,4.4,14.8,37.3,20,49.6,3.1,7.3,5.4,8.4,7.1,8.8,1.2.2,2.4.3,3.4.3s1,.2,1,.6-.7.8-3.7.8-9.4,0-15.8-.2c-1.5,0-1.9-.2-1.9-.6s.3-.6,1.1-.7c.6-.2,1.1-.9.7-1.9l-6.5-17.1c-.2-.4-.4-.6-.8-.6h-18ZM434.9,433.8c.4,0,.5-.2.4-.5l-7.3-19.9c-.2-.7-.6-1-.9,0l-7.4,19.8c0,.3,0,.6.3.6h14.8Z"/>
  <path class="st3" d="M468.1,457.9c-1.3-.6-1.5-1-1.5-2.7,0-4.4.3-9.3.4-10.6,0-1.2.3-2.1,1-2.1s.8.7.8,1.4c0,1,.3,2.7.7,4.1,1.8,6,6.5,8.1,11.5,8.1,7.3,0,10.8-4.9,10.8-9.2s-1.2-7.7-7.9-12.9l-3.7-2.9c-8.9-6.9-11.9-12.6-11.9-19.1s7.4-15.2,18.6-15.2,5.5.3,7.4.6c1.4.2,2.4.5,3.3.7.7.2,1.1.4,1.1,1,0,1-.3,3.4-.3,9.7s-.2,2.4-.9,2.4-.8-.5-.8-1.5-.4-3.2-2.1-5.3c-1.2-1.5-3.5-4-8.8-4s-9.6,3.5-9.6,8.3,1.9,6.5,8.5,11.6l2.3,1.7c9.8,7.3,13.2,12.9,13.2,20.6s-1.8,10.2-7.6,14c-4,2.6-8.5,3.3-12.8,3.3s-8.3-.6-11.8-2.1Z"/>
  <path class="st3" d="M33.2,565.1c-1.9-.9-2.3-1.5-2.3-4.1,0-6.7.5-14,.6-15.9.1-1.8.5-3.2,1.5-3.2s1.2,1.1,1.2,2.1c0,1.6.5,4.1,1.1,6.2,2.7,9,9.8,12.3,17.4,12.3,10.9,0,16.3-7.4,16.3-13.8s-1.8-11.5-11.9-19.4l-5.6-4.4c-13.4-10.4-18-18.9-18-28.8s11.2-22.9,28-22.9,8.3.5,11.2,1c2.1.4,3.6.7,5,1.1,1.1.2,1.7.6,1.7,1.5,0,1.6-.5,5.1-.5,14.6s-.4,3.6-1.3,3.6-1.2-.7-1.2-2.2-.6-4.9-3.2-8c-1.8-2.3-5.3-5.9-13.2-5.9s-14.4,5.2-14.4,12.5,2.8,9.8,12.9,17.5l3.4,2.5c14.7,11,19.9,19.4,19.9,30.9s-2.7,15.4-11.4,21.1c-6.1,3.9-12.9,5-19.3,5s-12.5-.8-17.7-3.2Z"/>
  <path class="st3" d="M96.1,520.7c0-20.8,13.7-47.6,50.1-47.6s49,17.6,49,45.4-19.4,49.8-50.2,49.8-48.9-26.1-48.9-47.6ZM178.3,523c0-27.2-15.7-44.1-35.6-44.1s-29.9,7.8-29.9,38,14,45.3,37.3,45.3,28.2-4.1,28.2-39.2Z"/>
  <path class="st3" d="M235.2,531.4c0,15.5,0,23.9,2.5,26.1,2.1,1.8,5.2,2.7,14.7,2.7s11.2-.1,14.2-3.4c1.5-1.6,2.9-5,3.2-7.3.1-1.1.4-1.8,1.3-1.8s1,.6,1,2.1-.9,10.4-1.8,14c-.7,2.7-1.3,3.3-7.6,3.3-11.2,0-22.3-.7-35.3-.7s-9.8.4-15.3.4-2.4-.4-2.4-1.2.5-1,1.9-1,3.3-.2,4.4-.5c2.4-.5,3-3.2,3.5-6.7.6-5.1.6-14.7.6-25.9v-21.4c0-18.4,0-21.8-.2-25.7-.2-4.1-1.2-6.1-5.2-6.9-1-.2-2.4-.4-4-.4s-2.1-.2-2.1-1.1.8-1.1,2.7-1.1c5.7,0,13.4.4,16.6.4s11.8-.4,16.5-.4,2.5.2,2.5,1.1-.7,1.1-2.2,1.1-3.3.1-4.7.4c-3.3.6-4.2,2.7-4.5,6.9-.2,3.9-.2,7.3-.2,25.7v21.4Z"/>
  <path class="st3" d="M307.6,534.9c-.6,0-.9.2-1.1,1l-6.6,17.4c-1.2,3-1.8,5.9-1.8,7.4,0,2.2,1.1,3.8,4.9,3.8h1.8c1.5,0,1.8.2,1.8,1s-.7,1.2-2.1,1.2c-3.9,0-9.1-.4-12.9-.4s-8,.4-14.3.4-2.3-.2-2.3-1.2.7-1,1.7-1,2.5-.1,3.5-.2c5.6-.7,7.9-4.9,10.3-10.9l30.5-76.2c1.5-3.5,2.3-4.9,3.4-4.9s1.8,1.1,3,3.9c2.9,6.7,22.3,56.2,30.1,74.6,4.6,10.9,8.1,12.6,10.7,13.2,1.8.4,3.6.5,5.1.5s1.6.2,1.6,1-1.1,1.2-5.6,1.2-14.1,0-23.8-.2c-2.2-.1-2.8-.2-2.8-1s.5-1,1.7-1.1c.8-.2,1.7-1.3,1.1-2.8l-9.7-25.7c-.2-.6-.6-.8-1.2-.8h-27.1ZM332.4,528.8c.6,0,.7-.4.6-.7l-10.9-30c-.4-1.1-.8-1.5-1.3,0l-11.2,29.9c-.1.5,0,.9.5.9h22.3Z"/>
  <path class="st3" d="M387.8,510c0-18.4,0-21.8-.2-25.7-.2-4.1-1.2-6.1-5.2-6.9-1-.2-3-.4-4.7-.4s-2.1-.2-2.1-1.1.8-1.1,2.7-1.1c6.4,0,14.1.4,16.6.4,4.1,0,13.4-.4,17.1-.4,7.6,0,15.8.7,22.3,5.2,3.4,2.3,8.3,8.5,8.3,16.6s-3.6,17.1-15.9,27.1c10.8,13.6,19.2,24.5,26.3,32,6.8,7,11.7,7.9,13.5,8.3,1.3.2,2.4.4,3.4.4s1.5.4,1.5,1c0,1-.8,1.2-2.3,1.2h-11.9c-6.8,0-9.8-.6-13-2.3-5.2-2.8-9.8-8.5-16.6-17.8-4.9-6.7-10.4-14.9-12-16.7-.6-.7-1.3-.8-2.2-.8l-10.2-.2c-.6,0-1,.2-1,1v1.7c0,11.3,0,20.9.6,26,.4,3.5,1.1,6.2,4.7,6.7s4.5.5,5.9.5,1.5.4,1.5,1-.8,1.2-2.4,1.2c-7,0-16-.4-17.8-.4s-10,.4-14.8.4-2.4-.4-2.4-1.2.5-1,1.9-1,3.3-.2,4.4-.5c2.4-.5,3-3.2,3.5-6.7.6-5.1.6-14.7.6-25.9v-21.4ZM402.1,519.6c0,1.3.2,1.8,1.1,2.2,2.5.9,6.2,1.2,9.2,1.2,4.9,0,6.4-.5,8.6-2.1,3.6-2.7,7.2-8.3,7.2-18.2,0-17.2-11.4-22.2-18.6-22.2s-5.2.1-6.4.5c-.8.2-1.1.7-1.1,1.7v36.9Z"/>
  <path class="st3" d="M477.2,510c0-18.4,0-21.8-.2-25.7-.2-4.1-1.5-6.2-4.1-6.8-1.3-.4-2.9-.5-4.4-.5s-1.9-.2-1.9-1.2,1-1,2.9-1c4.6,0,12.3.4,15.8.4s10.2-.4,14.8-.4,2.5.2,2.5,1-.7,1.2-1.9,1.2-2.2.1-3.6.4c-3.3.6-4.2,2.7-4.5,6.9-.2,3.9-.2,7.3-.2,25.7v21.4c0,11.8,0,21.4.5,26.6.4,3.3,1.2,5.5,4.9,5.9,1.7.2,4.4.5,6.2.5s1.9.4,1.9,1-1,1.2-2.3,1.2c-8,0-15.7-.4-18.9-.4s-10.4.4-15.3.4-2.4-.4-2.4-1.2.5-1,1.9-1,3.3-.2,4.4-.5c2.4-.5,3.2-2.5,3.5-6.1.6-5.1.6-14.7.6-26.5v-21.4Z"/>
  <path class="st3" d="M520.7,565.1c-1.9-.9-2.3-1.5-2.3-4.1,0-6.7.5-14,.6-15.9.1-1.8.5-3.2,1.5-3.2s1.2,1.1,1.2,2.1c0,1.6.5,4.1,1.1,6.2,2.7,9,9.8,12.3,17.4,12.3,10.9,0,16.3-7.4,16.3-13.8s-1.8-11.5-11.9-19.4l-5.6-4.4c-13.4-10.4-18-18.9-18-28.8s11.2-22.9,28-22.9,8.3.5,11.2,1c2.1.4,3.6.7,5,1.1,1.1.2,1.7.6,1.7,1.5,0,1.6-.5,5.1-.5,14.6s-.4,3.6-1.3,3.6-1.2-.7-1.2-2.2-.6-4.9-3.2-8c-1.8-2.3-5.3-5.9-13.2-5.9s-14.4,5.2-14.4,12.5,2.8,9.8,12.9,17.5l3.4,2.5c14.7,11,19.9,19.4,19.9,30.9s-2.7,15.4-11.4,21.1c-6.1,3.9-12.9,5-19.3,5s-12.5-.8-17.7-3.2Z"/>
  <path class="st3" d="M330.8,634c-.3,0-.6-.3-.6-.6s.4-.8.9-1.2c6.3-5.5,15.2-12.5,15.2-21.9s-3.9-8.5-6.1-8.5-3.4.4-4.7,1.6c-1.1,1-1.9,3.1-1.9,4.3s-.1.8-.6.8-.4-.3-.4-.8c0-.4-.3-4.1-.3-5.4s0-.6.5-.9c1.7-.9,4.2-1.7,8.1-1.7,7.9,0,11.2,4.3,11.2,9.5,0,8.7-9.6,16.2-15.4,20.8-.2.2-.1.3,0,.3h3c.8,0,6,0,7.7-.3,3.1-.4,4.6-1.9,5.1-4,.1-.5.3-.7.5-.7s.4.4.4.9c0,.7-.8,4.9-1.3,6.4-.4,1.2-1.1,1.3-3.9,1.3h-17.5Z"/>
  <path class="st3" d="M370.4,634.8c-9,0-11.9-10.2-11.9-16.6,0-10.4,4.2-18.5,12.7-18.5s11.9,9.4,11.9,16.5c0,11.4-4.7,18.6-12.7,18.6ZM370.2,601.7c-3.4,0-6.1,4.6-6.1,14.8s2.1,16.2,7.2,16.2,6.2-4.9,6.2-14.8-1.9-16.2-7.3-16.2Z"/>
  <path class="st3" d="M398.7,620.5c0,4.3,0,8.1.2,10.1.1,1.4.4,2.1,1.8,2.4.7.1,1.6.2,2,.3.4,0,.6.1.6.4s-.2.4-.7.4c-3.4,0-5.5-.1-6.7-.1s-4.2.1-7,.1-.8,0-.8-.4.3-.4.7-.4c.5,0,1.8-.1,2.6-.3,1.4-.3,1.7-.9,1.8-2.4.2-2,.2-5.8.2-10.1v-13.1c0-1.1,0-1.6-.7-1.6s-3.3,1.2-4.2,1.6c-.2,0-.4.2-.6.2s-.4,0-.4-.3.2-.5.4-.6c.2,0,7.9-5.2,9.4-6.4.4-.3.9-.6,1.2-.6s.5.5.5.9-.3,4.8-.3,11.6v8.3Z"/>
  <path class="st3" d="M407.7,634c-.3,0-.6-.3-.6-.6s.4-.8.9-1.2c6.3-5.5,15.2-12.5,15.2-21.9s-3.9-8.5-6.1-8.5-3.4.4-4.7,1.6c-1.1,1-1.9,3.1-1.9,4.3s-.1.8-.6.8-.4-.3-.4-.8c0-.4-.3-4.1-.3-5.4s0-.6.5-.9c1.7-.9,4.2-1.7,8.1-1.7,7.9,0,11.2,4.3,11.2,9.5,0,8.7-9.6,16.2-15.4,20.8-.2.2-.1.3,0,.3h3c.8,0,6,0,7.7-.3,3.1-.4,4.6-1.9,5.1-4,.1-.5.3-.7.5-.7s.4.4.4.9c0,.7-.9,4.9-1.3,6.4-.4,1.2-1.1,1.3-3.9,1.3h-17.5Z"/>
  <path class="st3" d="M185,634.5c-.6,0-1.3,0-2.2-.1-.8,0-1.8,0-2.8,0h-4.1c-.7,0-1.8.1-3,.1s-.1-.1-.1-.4,0-.4.1-.4c1.5,0,2.5,0,3.2-.3.7-.2,1.1-.6,1.4-1.2.3-.6.4-1.4.4-2.6v-27.3c0-1.2-.1-2-.4-2.6-.2-.6-.7-.9-1.4-1.2s-1.7-.3-3.2-.3-.1-.1-.1-.4,0-.4.1-.4h3c1.7.1,3.1.2,4.1.2,1.5,0,3,0,4.4-.2,1.9,0,3.1-.1,3.8-.1,4.1,0,7.7.8,10.9,2.4,3.1,1.6,5.6,3.7,7.3,6.4,1.7,2.7,2.6,5.8,2.6,9.1s-.9,7.2-2.7,10.1c-1.8,2.9-4.2,5.2-7.3,6.8-3,1.6-6.4,2.4-10,2.4s-2.5,0-4.1-.2ZM196.5,631.8c2.3-1.3,4.2-3.3,5.5-5.8,1.3-2.6,2-5.7,2-9.2s-.6-6.5-1.9-9.3c-1.3-2.8-3-5-5.3-6.6-2.3-1.6-5-2.4-8-2.4s-3,0-3.9.3c-.9.2-1.6.6-2,1.2-.4.6-.6,1.4-.6,2.6v26.6c0,1.7.4,2.9,1.3,3.7.8.7,2.5,1.1,5,1.1s5.7-.7,8.1-2Z"/>
  <path class="st3" d="M233.3,631c.1,0,.2,0,.3.2,0,.1.1.3,0,.4-2.6,2.4-5.5,3.5-8.7,3.5s-4.3-.5-6-1.6c-1.7-1-2.9-2.4-3.8-4.2s-1.3-3.6-1.3-5.6.6-4.4,1.7-6.4c1.1-1.9,2.6-3.5,4.6-4.6s4.1-1.7,6.4-1.7,4,.6,5.2,1.7c1.2,1.2,1.8,2.8,1.8,5s-.2,1.6-.7,1.6h-14.6c0,.9-.1,1.6-.1,2.1,0,3.4.8,6.2,2.4,8.3,1.6,2.1,3.9,3.1,6.8,3.1s2.2-.1,3-.4c.8-.3,1.8-.8,2.9-1.4h0ZM220.4,614c-1.1,1.1-1.8,2.7-2.1,4.7l10.7-.2c0-2-.4-3.5-1.2-4.6-.8-1-1.9-1.6-3.4-1.6s-3,.6-4.1,1.7Z"/>
  <path class="st3" d="M243.3,618.3c.9.8,2.2,1.7,3.9,2.6,1.4.7,2.5,1.3,3.2,1.8.8.5,1.5,1.2,2,2s.8,1.9.8,3c0,2-.7,3.7-2.2,5.1-1.5,1.4-3.6,2.1-6.2,2.1s-2-.1-2.9-.4c-.9-.3-1.9-.7-2.8-1.4-.2-.2-.4-.4-.4-.7v-4.8c-.1-.1,0-.2.2-.2s.3,0,.4.1c.7,2,1.7,3.5,3,4.6s2.7,1.6,4.2,1.6,2-.3,2.7-.8c.6-.6.9-1.4.9-2.5,0-1.6-.4-2.8-1.3-3.6-.9-.8-2.2-1.7-4-2.6-1.3-.7-2.4-1.3-3.1-1.8-.7-.5-1.4-1.2-1.9-2s-.8-1.8-.8-3.1c0-2.2.8-3.8,2.4-4.9,1.6-1.1,3.5-1.7,5.8-1.7s3,.3,4.4.9c.4.2.5.4.5.6,0,.8,0,1.5,0,1.9v2.5c0,0-.2.1-.4.1s-.4,0-.4-.1c0-1.2-.7-2.3-2-3.3-1.3-1-2.7-1.5-4.2-1.5s-1.7.2-2.2.7c-.6.5-.8,1.2-.8,2.2s.4,2.4,1.3,3.2Z"/>
  <path class="st3" d="M285.7,631c.1,0,.2,0,.3.3,0,.2,0,.3,0,.4l-6.8,3.2c-.2,0-.4.1-.4.1-.5,0-.9-.4-1.3-1.2-.4-.8-.6-2-.6-3.5-1.4,1.5-2.9,2.6-4.5,3.5-1.6.9-3.3,1.4-5.2,1.4s-3.2-.5-4.6-1.4c-1.4-.9-2.5-2.3-3.4-4-.8-1.7-1.3-3.7-1.3-6s.7-5.2,2.1-7.2c1.4-1.9,3.1-3.4,5.2-4.4s4.2-1.4,6.3-1.4,3.8.5,5.4,1.4v-13c0-1.4-.1-2.4-.4-3-.3-.6-.8-.9-1.5-.9s-1.4.3-2.6.8h-.1c-.2,0-.3,0-.3-.3s0-.3,0-.4l7.7-3.7c0,0,.2,0,.3,0s.2,0,.4.2c.1.1.2.2.2.4v35.7c0,1.4.2,2.4.5,3,.3.6.8.9,1.6.9s2-.3,3-.8h.1ZM273.4,632c1.2-.6,2.3-1.6,3.5-2.7v-13.2c-.9-1.3-1.8-2.2-2.9-2.9-1.1-.7-2.4-1-4-1-2.4,0-4.3.9-5.7,2.6s-2.1,4.2-2.1,7.4.7,5.9,2.1,7.9,3.2,3,5.4,3,2.6-.3,3.7-1Z"/>
  <path class="st3" d="M307.5,631c.1,0,.2,0,.3.2,0,.1.1.3,0,.4-2.6,2.4-5.5,3.5-8.7,3.5s-4.3-.5-6-1.6c-1.7-1-2.9-2.4-3.8-4.2s-1.3-3.6-1.3-5.6.6-4.4,1.7-6.4c1.1-1.9,2.6-3.5,4.6-4.6s4.1-1.7,6.4-1.7,4,.6,5.2,1.7c1.2,1.2,1.8,2.8,1.8,5s-.2,1.6-.7,1.6h-14.6c0,.9-.1,1.6-.1,2.1,0,3.4.8,6.2,2.4,8.3,1.6,2.1,3.9,3.1,6.8,3.1s2.2-.1,3-.4c.8-.3,1.8-.8,2.9-1.4h0ZM294.7,614c-1.1,1.1-1.8,2.7-2.1,4.7l10.7-.2c0-2-.4-3.5-1.2-4.6-.8-1-1.9-1.6-3.4-1.6s-3,.6-4.1,1.7Z"/>
  <circle class="st3" cx="145.7" cy="521.2" r="9.6"/>
  <path class="st3" d="M137,499.5v8.9c.1.3.4.5.7.4l5.6-2c.3,0,.4-.4.2-.6l-5.8-7c-.2-.3-.7-.1-.7.3Z"/>
  <path class="st3" d="M153.4,499.3l-6,6.6c-.2.2-.1.5.1.6l5.5,2.4c.3.1.5,0,.6-.3l.5-9c0-.4-.4-.6-.7-.3Z"/>
  <path class="st3" d="M166.3,511.1l-8.9.8c-.3,0-.4.3-.3.6l2.4,5.5c.1.3.4.3.6.1l6.5-6.3c.3-.3,0-.7-.3-.7Z"/>
  <path class="st3" d="M167.1,530.1l-6.6-6c-.2-.2-.5-.1-.6.1l-2.4,5.5c-.1.3,0,.5.3.6l9,.5c.4,0,.6-.4.3-.7Z"/>
  <path class="st3" d="M155.1,542.2l-.8-8.9c0-.3-.3-.4-.6-.3l-5.5,2.4c-.3.1-.3.4-.1.6l6.3,6.5c.3.3.7,0,.7-.3Z"/>
  <path class="st3" d="M135.7,542.1l6.4-6.2c.2-.2.1-.5,0-.6l-5.3-2.8c-.2-.1-.5,0-.6.3l-1.1,9c0,.4.4.6.7.3Z"/>
  <path class="st3" d="M124.2,530.6h8.9c.3,0,.5-.3.4-.5l-1.9-5.7c0-.3-.4-.4-.6-.2l-7,5.7c-.3.2-.1.7.3.7Z"/>
  <path class="st3" d="M124.4,513.9l7.2,5.3c.2.2.5,0,.6-.2l1.8-5.7c0-.3-.1-.5-.4-.5l-9,.4c-.4,0-.5.5-.2.7Z"/>
</svg>
